<mxfile host="app.diagrams.net" agent="Mozilla/5.0 (X11; Ubuntu; Linux x86_64; rv:130.0) Gecko/20100101 Firefox/130.0" version="24.7.17">
  <diagram name="Page-1" id="0RybiHmKnfqqal4g4g9U">
    <mxGraphModel dx="819" dy="443" grid="1" gridSize="10" guides="1" tooltips="1" connect="1" arrows="1" fold="1" page="1" pageScale="1" pageWidth="850" pageHeight="1100" math="0" shadow="0">
      <root>
        <mxCell id="0" />
        <mxCell id="1" parent="0" />
        <mxCell id="4P768PnbTTSkNO5Lj-08-4" style="edgeStyle=orthogonalEdgeStyle;rounded=0;orthogonalLoop=1;jettySize=auto;html=1;exitX=0;exitY=0.5;exitDx=0;exitDy=0;entryX=0.5;entryY=0;entryDx=0;entryDy=0;curved=1;startArrow=classic;startFill=1;" edge="1" parent="1" source="4P768PnbTTSkNO5Lj-08-1" target="4P768PnbTTSkNO5Lj-08-3">
          <mxGeometry relative="1" as="geometry" />
        </mxCell>
        <mxCell id="4P768PnbTTSkNO5Lj-08-10" style="edgeStyle=orthogonalEdgeStyle;rounded=0;orthogonalLoop=1;jettySize=auto;html=1;exitX=1;exitY=0.5;exitDx=0;exitDy=0;entryX=1;entryY=0.5;entryDx=0;entryDy=0;curved=1;" edge="1" parent="1" source="4P768PnbTTSkNO5Lj-08-1" target="4P768PnbTTSkNO5Lj-08-2">
          <mxGeometry relative="1" as="geometry" />
        </mxCell>
        <mxCell id="4P768PnbTTSkNO5Lj-08-1" value="&lt;div&gt;Główny tryb&lt;/div&gt;&lt;div&gt;uprzywilejowany&lt;br&gt;&lt;/div&gt;" style="ellipse;whiteSpace=wrap;html=1;fillColor=none;" vertex="1" parent="1">
          <mxGeometry x="450" y="230" width="120" height="80" as="geometry" />
        </mxCell>
        <mxCell id="4P768PnbTTSkNO5Lj-08-6" style="edgeStyle=orthogonalEdgeStyle;rounded=0;orthogonalLoop=1;jettySize=auto;html=1;exitX=0;exitY=0.5;exitDx=0;exitDy=0;entryX=0.5;entryY=1;entryDx=0;entryDy=0;curved=1;startArrow=classic;startFill=1;" edge="1" parent="1" source="4P768PnbTTSkNO5Lj-08-2" target="4P768PnbTTSkNO5Lj-08-3">
          <mxGeometry relative="1" as="geometry" />
        </mxCell>
        <mxCell id="4P768PnbTTSkNO5Lj-08-2" value="&lt;div&gt;Główny tryb&lt;/div&gt;&lt;div&gt;nieuprzywilejowany&lt;br&gt;&lt;/div&gt;" style="ellipse;whiteSpace=wrap;html=1;fillColor=none;" vertex="1" parent="1">
          <mxGeometry x="450" y="390" width="120" height="80" as="geometry" />
        </mxCell>
        <mxCell id="4P768PnbTTSkNO5Lj-08-3" value="Tryb przerwania" style="ellipse;whiteSpace=wrap;html=1;fillColor=none;" vertex="1" parent="1">
          <mxGeometry x="240" y="310" width="120" height="80" as="geometry" />
        </mxCell>
        <mxCell id="4P768PnbTTSkNO5Lj-08-11" value="&lt;div&gt;Przełączenie&lt;/div&gt;&lt;div&gt;stanu&lt;br&gt;&lt;/div&gt;" style="text;html=1;align=center;verticalAlign=middle;resizable=0;points=[];autosize=1;strokeColor=none;fillColor=none;" vertex="1" parent="1">
          <mxGeometry x="310" y="230" width="90" height="40" as="geometry" />
        </mxCell>
        <mxCell id="4P768PnbTTSkNO5Lj-08-12" value="&lt;div&gt;Przełączenie&lt;/div&gt;&lt;div&gt;stanu&lt;br&gt;&lt;/div&gt;" style="text;html=1;align=center;verticalAlign=middle;resizable=0;points=[];autosize=1;strokeColor=none;fillColor=none;" vertex="1" parent="1">
          <mxGeometry x="335" y="390" width="90" height="40" as="geometry" />
        </mxCell>
        <mxCell id="4P768PnbTTSkNO5Lj-08-13" value="&lt;div&gt;Przełączenie&lt;/div&gt;&lt;div&gt;stanu&lt;br&gt;&lt;/div&gt;" style="text;html=1;align=center;verticalAlign=middle;resizable=0;points=[];autosize=1;strokeColor=none;fillColor=none;" vertex="1" parent="1">
          <mxGeometry x="500" y="330" width="90" height="40" as="geometry" />
        </mxCell>
      </root>
    </mxGraphModel>
  </diagram>
</mxfile>
